<svg width="294" height="68" viewBox="0 0 294 68" fill="none" xmlns="http://www.w3.org/2000/svg">
<g clip-path="url(#clip0_804_2)">
<path d="M120.31 29.6V0H138.06V4.36H125.33V12.65H135.62V16.92H125.33V29.61H120.3L120.31 29.6Z" fill="#102A38"/>
<path d="M146.9 30.11C145.22 30.11 143.85 29.82 142.78 29.24C141.71 28.66 140.91 27.89 140.38 26.94C139.86 25.98 139.59 24.92 139.59 23.77C139.59 21.82 140.3 20.25 141.71 19.03C143.12 17.82 145.25 17.21 148.07 17.21H153.02V16.7C153.02 15.26 152.64 14.21 151.88 13.53C151.12 12.85 150.18 12.52 149.05 12.52C148.03 12.52 147.14 12.78 146.38 13.3C145.62 13.82 145.15 14.59 144.97 15.6H140.06C140.19 14.08 140.67 12.75 141.49 11.63C142.31 10.5 143.38 9.63999 144.69 9.02999C146 8.41999 147.47 8.12 149.09 8.12C151.87 8.12 154.05 8.86999 155.65 10.36C157.25 11.85 158.05 13.97 158.05 16.7V29.6H153.77L153.3 26.22C152.72 27.35 151.92 28.28 150.88 29.01C149.84 29.74 148.52 30.11 146.89 30.11H146.9ZM148.04 25.88C149.48 25.88 150.6 25.37 151.4 24.36C152.2 23.35 152.7 22.09 152.91 20.6H148.63C147.29 20.6 146.34 20.86 145.76 21.38C145.18 21.9 144.9 22.54 144.9 23.3C144.9 24.12 145.19 24.75 145.76 25.2C146.34 25.65 147.09 25.88 148.04 25.88Z" fill="#102A38"/>
<path d="M170.9 30.11C169.17 30.11 167.65 29.81 166.34 29.2C165.03 28.59 163.98 27.76 163.2 26.68C162.41 25.61 161.94 24.37 161.79 22.96H166.86C167.02 23.78 167.44 24.48 168.14 25.05C168.83 25.63 169.73 25.92 170.83 25.92C171.93 25.92 172.74 25.68 173.25 25.2C173.76 24.72 174.02 24.17 174.02 23.55C174.02 22.65 173.65 22.03 172.92 21.71C172.19 21.39 171.17 21.07 169.86 20.76C169.02 20.56 168.17 20.32 167.31 20.04C166.45 19.76 165.65 19.4 164.93 18.96C164.21 18.52 163.63 17.96 163.18 17.27C162.73 16.58 162.51 15.73 162.51 14.71C162.51 12.85 163.2 11.28 164.57 10.02C165.95 8.75 167.88 8.12 170.36 8.12C172.66 8.12 174.5 8.7 175.88 9.85C177.26 11.01 178.07 12.6 178.34 14.63H173.59C173.3 13.08 172.21 12.3 170.33 12.3C169.39 12.3 168.66 12.5 168.15 12.89C167.64 13.29 167.38 13.78 167.38 14.37C167.38 14.96 167.76 15.48 168.52 15.85C169.28 16.22 170.29 16.56 171.54 16.86C172.9 17.2 174.15 17.57 175.29 17.98C176.43 18.39 177.34 18.99 178.02 19.8C178.7 20.6 179.04 21.75 179.04 23.25C179.07 24.55 178.75 25.72 178.1 26.76C177.45 27.8 176.5 28.62 175.27 29.21C174.04 29.8 172.59 30.1 170.91 30.1L170.9 30.11Z" fill="#102A38"/>
<path d="M191.52 29.6C189.48 29.6 187.84 29.06 186.61 27.99C185.38 26.92 184.76 25.02 184.76 22.28V13.15H181.42V8.63001H184.76L185.35 3.01001H189.79V8.63001H195.05V13.15H189.79V22.33C189.79 23.35 189.99 24.04 190.4 24.42C190.81 24.8 191.51 24.99 192.5 24.99H194.94V29.6H191.52Z" fill="#102A38"/>
<path d="M208.84 29.6V0H218.23C221.45 0 224.1 0.61 226.18 1.84C228.26 3.07 229.81 4.79 230.81 7C231.82 9.21 232.32 11.81 232.32 14.8C232.32 17.79 231.82 20.39 230.81 22.6C229.8 24.81 228.26 26.53 226.18 27.76C224.1 28.99 221.45 29.6 218.23 29.6H208.84ZM213.87 24.95H217.99C220.29 24.95 222.11 24.55 223.45 23.74C224.79 22.94 225.74 21.78 226.32 20.27C226.9 18.76 227.18 16.94 227.18 14.79C227.18 12.64 226.89 10.86 226.32 9.34C225.74 7.82 224.79 6.65 223.45 5.83C222.12 5.01 220.29 4.6 217.99 4.6H213.87V24.94V24.95Z" fill="#102A38"/>
<path d="M243.37 30.11C241.69 30.11 240.32 29.82 239.25 29.24C238.18 28.66 237.38 27.89 236.85 26.94C236.33 25.98 236.06 24.92 236.06 23.77C236.06 21.82 236.77 20.25 238.18 19.03C239.59 17.82 241.72 17.21 244.54 17.21H249.49V16.7C249.49 15.26 249.11 14.21 248.35 13.53C247.59 12.85 246.65 12.52 245.52 12.52C244.5 12.52 243.61 12.78 242.85 13.3C242.09 13.82 241.62 14.59 241.44 15.6H236.53C236.66 14.08 237.14 12.75 237.96 11.63C238.78 10.5 239.85 9.63999 241.16 9.02999C242.47 8.41999 243.94 8.12 245.56 8.12C248.34 8.12 250.52 8.86999 252.12 10.36C253.72 11.85 254.52 13.97 254.52 16.7V29.6H250.24L249.77 26.22C249.19 27.35 248.39 28.28 247.35 29.01C246.31 29.74 244.99 30.11 243.36 30.11H243.37ZM244.51 25.88C245.95 25.88 247.07 25.37 247.87 24.36C248.67 23.35 249.17 22.09 249.38 20.6H245.1C243.76 20.6 242.81 20.86 242.23 21.38C241.65 21.9 241.37 22.54 241.37 23.3C241.37 24.12 241.66 24.75 242.23 25.2C242.81 25.65 243.56 25.88 244.51 25.88Z" fill="#102A38"/>
<path d="M267.72 29.6C265.68 29.6 264.04 29.06 262.81 27.99C261.58 26.92 260.96 25.02 260.96 22.28V13.15H257.62V8.63001H260.96L261.55 3.01001H265.99V8.63001H271.25V13.15H265.99V22.33C265.99 23.35 266.19 24.04 266.6 24.42C267.01 24.8 267.71 24.99 268.7 24.99H271.14V29.6H267.72Z" fill="#102A38"/>
<path d="M282.29 30.11C280.61 30.11 279.24 29.82 278.17 29.24C277.1 28.66 276.3 27.89 275.77 26.94C275.25 25.98 274.98 24.92 274.98 23.77C274.98 21.82 275.69 20.25 277.1 19.03C278.51 17.82 280.64 17.21 283.46 17.21H288.41V16.7C288.41 15.26 288.03 14.21 287.27 13.53C286.51 12.85 285.57 12.52 284.44 12.52C283.42 12.52 282.53 12.78 281.77 13.3C281.01 13.82 280.54 14.59 280.36 15.6H275.45C275.58 14.08 276.06 12.75 276.88 11.63C277.7 10.5 278.77 9.63999 280.08 9.02999C281.39 8.41999 282.86 8.12 284.48 8.12C287.26 8.12 289.44 8.86999 291.04 10.36C292.64 11.85 293.44 13.97 293.44 16.7V29.6H289.16L288.69 26.22C288.11 27.35 287.31 28.28 286.27 29.01C285.23 29.74 283.91 30.11 282.28 30.11H282.29ZM283.43 25.88C284.87 25.88 285.99 25.37 286.79 24.36C287.59 23.35 288.09 22.09 288.3 20.6H284.02C282.68 20.6 281.73 20.86 281.15 21.38C280.57 21.9 280.29 22.54 280.29 23.3C280.29 24.12 280.58 24.75 281.15 25.2C281.73 25.65 282.48 25.88 283.43 25.88Z" fill="#102A38"/>
<path d="M129.7 67.51C127.68 67.51 125.9 67.14 124.36 66.39C122.81 65.64 121.6 64.57 120.71 63.18C119.82 61.79 119.36 60.09 119.34 58.08H124.64C124.69 59.46 125.16 60.62 126.03 61.57C126.91 62.51 128.12 62.99 129.66 62.99C130.99 62.99 132.06 62.65 132.84 61.95C133.63 61.26 134.02 60.34 134.02 59.18C134.02 58.02 133.67 57.02 132.98 56.35C132.29 55.67 131.36 55.12 130.21 54.7C129.06 54.28 127.83 53.83 126.52 53.35C124.4 52.56 122.78 51.55 121.67 50.31C120.56 49.07 120 47.42 120 45.36C119.97 43.61 120.36 42.11 121.16 40.86C121.96 39.61 123.05 38.63 124.44 37.94C125.83 37.25 127.43 36.9 129.23 36.9C131.03 36.9 132.68 37.25 134.08 37.96C135.48 38.67 136.58 39.65 137.38 40.92C138.18 42.19 138.6 43.7 138.66 45.44H133.28C133.25 44.4 132.88 43.47 132.16 42.67C131.44 41.87 130.44 41.46 129.16 41.46C128.06 41.43 127.14 41.72 126.39 42.33C125.64 42.94 125.27 43.82 125.27 44.97C125.27 45.96 125.56 46.74 126.13 47.32C126.71 47.9 127.49 48.38 128.49 48.78C129.49 49.18 130.62 49.6 131.91 50.05C133.27 50.56 134.52 51.15 135.64 51.83C136.77 52.51 137.67 53.4 138.35 54.52C139.03 55.63 139.37 57.06 139.37 58.81C139.37 60.36 139 61.8 138.27 63.12C137.54 64.45 136.45 65.51 135.01 66.31C133.57 67.11 131.8 67.52 129.71 67.52L129.7 67.51Z" fill="#102A38"/>
<path d="M153.19 67.51C151.2 67.51 149.44 67.05 147.93 66.11C146.41 65.18 145.21 63.88 144.34 62.22C143.46 60.56 143.02 58.65 143.02 56.51C143.02 54.37 143.46 52.47 144.34 50.8C145.22 49.14 146.42 47.84 147.93 46.91C149.45 45.98 151.2 45.51 153.19 45.51C155.68 45.51 157.77 46.21 159.48 47.6C161.18 49 162.27 50.92 162.74 53.37H157.44C157.18 52.35 156.66 51.56 155.89 50.98C155.12 50.4 154.21 50.11 153.16 50.11C151.77 50.11 150.59 50.67 149.62 51.8C148.65 52.93 148.17 54.49 148.17 56.49C148.17 58.49 148.65 60.06 149.62 61.18C150.59 62.31 151.77 62.87 153.16 62.87C154.21 62.87 155.12 62.59 155.89 62.02C156.66 61.46 157.18 60.65 157.44 59.61H162.74C162.27 61.98 161.18 63.88 159.48 65.32C157.78 66.76 155.68 67.48 153.19 67.48V67.51Z" fill="#102A38"/>
<path d="M169.92 42.7701C169 42.7701 168.25 42.4701 167.66 41.8801C167.07 41.2901 166.78 40.54 166.78 39.64C166.78 38.74 167.07 38 167.66 37.42C168.25 36.84 169 36.55 169.92 36.55C170.84 36.55 171.59 36.84 172.18 37.42C172.77 38 173.06 38.74 173.06 39.64C173.06 40.54 172.77 41.2901 172.18 41.8801C171.59 42.4701 170.84 42.7701 169.92 42.7701ZM167.41 67V46.03H172.44V67H167.41Z" fill="#102A38"/>
<path d="M187.16 67.51C185.2 67.51 183.45 67.06 181.94 66.16C180.43 65.26 179.23 63.99 178.37 62.35C177.51 60.72 177.07 58.83 177.07 56.68C177.07 54.53 177.49 52.58 178.35 50.89C179.2 49.2 180.38 47.88 181.89 46.94C183.4 46 185.17 45.52 187.21 45.52C189.12 45.52 190.81 45.97 192.28 46.87C193.75 47.77 194.89 49.01 195.72 50.57C196.55 52.13 196.96 53.88 196.96 55.79C196.96 56.1 196.96 56.42 196.94 56.76C196.93 57.1 196.91 57.45 196.88 57.82H182.07C182.17 59.46 182.7 60.74 183.66 61.67C184.62 62.6 185.77 63.07 187.14 63.07C188.16 63.07 189.02 62.82 189.71 62.33C190.4 61.84 190.92 61.2 191.26 60.41H196.37C196 61.74 195.39 62.94 194.54 64.03C193.69 65.12 192.64 65.97 191.4 66.59C190.16 67.21 188.75 67.52 187.18 67.52L187.16 67.51ZM187.2 49.92C185.97 49.92 184.88 50.29 183.94 51.04C183 51.79 182.39 52.92 182.13 54.44H191.83C191.75 53.06 191.28 51.96 190.42 51.14C189.56 50.32 188.48 49.91 187.2 49.91V49.92Z" fill="#102A38"/>
<path d="M201.18 67V46.03H205.62L206.01 49.58C206.61 48.34 207.48 47.35 208.62 46.62C209.76 45.89 211.1 45.52 212.65 45.52C215.06 45.52 216.93 46.34 218.27 47.97C219.6 49.61 220.27 52 220.27 55.16V67H215.24V55.67C215.24 53.87 214.9 52.48 214.22 51.53C213.54 50.57 212.48 50.09 211.04 50.09C209.6 50.09 208.47 50.63 207.56 51.7C206.66 52.77 206.21 54.27 206.21 56.18V67H201.18Z" fill="#102A38"/>
<path d="M234.61 67.51C232.62 67.51 230.86 67.05 229.35 66.11C227.83 65.18 226.63 63.88 225.76 62.22C224.88 60.56 224.44 58.65 224.44 56.51C224.44 54.37 224.88 52.47 225.76 50.8C226.64 49.14 227.84 47.84 229.35 46.91C230.87 45.98 232.62 45.51 234.61 45.51C237.1 45.51 239.19 46.21 240.9 47.6C242.6 49 243.69 50.92 244.16 53.37H238.86C238.6 52.35 238.08 51.56 237.31 50.98C236.54 50.4 235.63 50.11 234.58 50.11C233.19 50.11 232.01 50.67 231.04 51.8C230.07 52.93 229.59 54.49 229.59 56.49C229.59 58.49 230.07 60.06 231.04 61.18C232.01 62.31 233.19 62.87 234.58 62.87C235.63 62.87 236.54 62.59 237.31 62.02C238.08 61.46 238.6 60.65 238.86 59.61H244.16C243.69 61.98 242.6 63.88 240.9 65.32C239.2 66.76 237.1 67.48 234.61 67.48V67.51Z" fill="#102A38"/>
<path d="M258.1 67.51C256.14 67.51 254.39 67.06 252.88 66.16C251.37 65.26 250.17 63.99 249.31 62.35C248.45 60.72 248.01 58.83 248.01 56.68C248.01 54.53 248.43 52.58 249.29 50.89C250.14 49.2 251.32 47.88 252.83 46.94C254.34 46 256.11 45.52 258.15 45.52C260.06 45.52 261.75 45.97 263.22 46.87C264.69 47.77 265.83 49.01 266.66 50.57C267.49 52.13 267.9 53.88 267.9 55.79C267.9 56.1 267.9 56.42 267.88 56.76C267.87 57.1 267.85 57.45 267.82 57.82H253.01C253.11 59.46 253.64 60.74 254.6 61.67C255.56 62.6 256.71 63.07 258.08 63.07C259.1 63.07 259.96 62.82 260.65 62.33C261.34 61.84 261.86 61.2 262.2 60.41H267.31C266.94 61.74 266.33 62.94 265.48 64.03C264.63 65.12 263.58 65.97 262.34 66.59C261.1 67.21 259.69 67.52 258.12 67.52L258.1 67.51ZM258.14 49.92C256.91 49.92 255.82 50.29 254.88 51.04C253.94 51.79 253.33 52.92 253.07 54.44H262.77C262.69 53.06 262.22 51.96 261.36 51.14C260.5 50.32 259.42 49.91 258.14 49.91V49.92Z" fill="#102A38"/>
<path opacity="0.5" d="M68.54 50.5C78.1608 50.5 85.96 42.7008 85.96 33.08C85.96 23.4592 78.1608 15.66 68.54 15.66C58.9192 15.66 51.12 23.4592 51.12 33.08C51.12 42.7008 58.9192 50.5 68.54 50.5Z" fill="#57CC98"/>
<path d="M81.52 34.27C81.52 26.54 75.27 20.29 67.54 20.29Z" fill="white"/>
<path d="M100.34 23.66C100.29 23.5 100.23 23.34 100.18 23.18C100.13 23.02 100.08 22.86 100.03 22.7C98.77 18.42 96.21 14.23 92.78 10.58C88.88 6.43001 84.2 3.47001 78.75 1.70001C73.56 0.0300059 68.26 -0.419994 62.89 0.400006C59 0.990006 55.33 2.30001 51.88 4.26001C49.87 5.40001 48.02 6.71001 46.29 8.18001L8.81 36.13L23.51 33.18L0 50.71L39.47 37.26L40.24 39.94L45.43 38.17C45.23 37.25 45.08 36.31 44.99 35.37C44.99 35.31 44.98 35.25 44.97 35.19C44.95 34.98 44.93 34.76 44.92 34.55C44.91 34.35 44.9 34.14 44.89 33.94C44.74 30.08 45.54 26.13 47.41 22.44C53.28 10.84 67.44 6.21001 79.04 12.08C90.64 17.95 95.27 32.11 89.4 43.71C83.53 55.31 69.37 59.94 57.77 54.07C54 52.16 50.97 49.37 48.79 46.08C48.77 46.04 48.74 46.01 48.72 45.97C48.72 45.95 48.7 45.94 48.69 45.92C48.21 45.18 47.77 44.43 47.38 43.64L41.95 45.39L42.66 47.86L2.81 60.74H31.92L22.71 65.2L18.59 67.15H18.63L18.59 67.17H18.64L18.42 67.28H68.54C69.83 67.26 71.13 67.18 72.44 67.02C76.38 66.56 80.12 65.44 83.6 63.62C88.41 61.1 92.42 57.61 95.61 53.18C98.96 48.54 100.98 43.38 101.67 37.72C102.28 32.75 101.86 27.86 100.35 23.66H100.34Z" fill="#57CC98"/>
</g>
<defs>
<clipPath id="clip0_804_2">
<rect width="293.45" height="67.51" fill="white"/>
</clipPath>
</defs>
</svg>
